HIERARCHY
ROOT Hips
{
	OFFSET 0.00000 0.00000 0.00000
	CHANNELS 6 Xposition Yposition Zposition Zrotation Yrotation Xrotation 
	JOINT LHipJoint
	{
		OFFSET 0 0 0
		CHANNELS 3 Zrotation Yrotation Xrotation
		JOINT LeftHip
		{
			OFFSET 1.85742 -1.74412 1.01653
			CHANNELS 3 Zrotation Yrotation Xrotation
			JOINT LeftKnee
			{
				OFFSET 2.54803 -7.00067 0.00000
				CHANNELS 3 Zrotation Yrotation Xrotation
				JOINT LeftAnkle
				{
					OFFSET 2.51202 -6.90173 0.00000
					CHANNELS 3 Zrotation Yrotation Xrotation
					JOINT LeftToe
					{
						OFFSET 0.17547 -0.48209 1.64281
						CHANNELS 3 Zrotation Yrotation Xrotation
						End Site
						{
							OFFSET 0.00000 -0.00000 0.86587
						}
					}
				}
			}
		}
	}
	JOINT RHipJoint
	{
		OFFSET 0 0 0
		CHANNELS 3 Zrotation Yrotation Xrotation
		JOINT RightHip
		{
			OFFSET -1.95533 -1.74413 1.01654
			CHANNELS 3 Zrotation Yrotation Xrotation
			JOINT RightKnee
			{
				OFFSET -2.49465 -6.85400 0.00000
				CHANNELS 3 Zrotation Yrotation Xrotation
				JOINT RightAnkle
				{
					OFFSET -2.54783 -7.00010 0.00000
					CHANNELS 3 Zrotation Yrotation Xrotation
					JOINT RightToe
					{
						OFFSET -0.18513 -0.50864 1.69288
						CHANNELS 3 Zrotation Yrotation Xrotation
						End Site
						{
							OFFSET -0.00000 -0.00000 0.89242
						}
					}
				}
			}
		}
	}
	JOINT lowerback
	{
		OFFSET 0 0 0
		CHANNELS 3 Zrotation Yrotation Xrotation
		JOINT Chest
		{
			OFFSET 0.02173 2.16290 -0.15998
			CHANNELS 3 Zrotation Yrotation Xrotation
			JOINT Chest2
			{
				OFFSET 0.00940 2.17323 -0.00467
				CHANNELS 3 Zrotation Yrotation Xrotation
				JOINT lowerneck
				{
					OFFSET 0 0 0
					CHANNELS 3 Zrotation Yrotation Xrotation
					JOINT Neck
					{
						OFFSET 0.01475 1.85823 0.31113
						CHANNELS 3 Zrotation Yrotation Xrotation
						JOINT Head
						{
							OFFSET 0.01902 1.88783 -0.37187
							CHANNELS 3 Zrotation Yrotation Xrotation
							End Site
							{
								OFFSET 0.00489 1.93211 -0.16169
							}
						}
					}
				}
				JOINT LeftCollar
				{
					OFFSET 0 0 0
					CHANNELS 3 Zrotation Yrotation Xrotation
					JOINT LeftShoulder
					{
						OFFSET 3.34199 1.32384 -0.07862
CHANNELS 3 Zrotation Xrotation Yrotation
						JOINT LeftElbow
						{
OFFSET 0 -5.279500 0.000000
CHANNELS 3 Zrotation Xrotation Yrotation
							JOINT LeftWrist
							{
OFFSET 0 -3.535040 0.000000
CHANNELS 3 Zrotation Xrotation Yrotation
								JOINT lhand
								{
									OFFSET 0 0 0
CHANNELS 3 Zrotation Xrotation Yrotation
									JOINT LFingers
									{
OFFSET 0 -0.667950 0.000000
CHANNELS 3 Zrotation Xrotation Yrotation
										End Site
										{
OFFSET 0 -0.538520 0.000000
										}
									}
								}
								JOINT LThumb
								{
OFFSET 0 0.000000 0.000000
CHANNELS 3 Zrotation Xrotation Yrotation
									End Site
									{
OFFSET 0 -0.546740 0.546740
									}
								}
							}
						}
					}
				}
				JOINT RightCollar
				{
					OFFSET 0 0 0
					CHANNELS 3 Zrotation Yrotation Xrotation
					JOINT RightShoulder
					{
						OFFSET -3.16149 1.45719 -0.50507
CHANNELS 3 Zrotation Xrotation Yrotation
						JOINT RightElbow
						{
OFFSET 0 -5.250350 0.000000
CHANNELS 3 Zrotation Xrotation Yrotation
							JOINT RightWrist
							{
OFFSET 0 -3.588840 0.000000
CHANNELS 3 Zrotation Xrotation Yrotation
								JOINT rhand
								{
									OFFSET 0 0 0
CHANNELS 3 Zrotation Xrotation Yrotation
									JOINT RFingers
									{
OFFSET 0 -0.779240 0.000000
CHANNELS 3 Zrotation Xrotation Yrotation
										End Site
										{
OFFSET 0 -0.628240 0.000000
										}
									}
								}
								JOINT RThumb
								{
OFFSET 0 0.000000 0.000000
CHANNELS 3 Zrotation Xrotation Yrotation
									End Site
									{
OFFSET 0 -0.637830 0.637830
									}
								}
							}
						}
					}
				}
			}
		}
	}
}
MOTION
Frames: 10
Frame Time: 0.008333333333333333
-10.083159 17.723672 -6.134384 -198.292314 103.578664 -181.191003 0.000000 0.000000 0.000000 -6.900779 -12.533231 -28.205738 1.985716 8.836303 25.284625 0.491612 7.240420 -17.833518 2.000477 -8.867082 -25.380477 0.000000 0.000000 0.000000 13.518527 13.479875 -17.530558 -0.038012 -1.257909 3.458706 0.236428 -8.781567 -1.245736 -1.595099 7.966125 -22.611347 -3.438740 2.194873 14.626184 -2.792047 2.427088 3.950209 -1.429573 1.288258 -4.023853 3.940633 3.616492 -14.926594 -2.374387 7.667120 42.150165 -0.164860 3.841569 18.745529 0.000000 0.000000 0.000000 10.170853 -34.228586 -55.516195 26.872764 -38.057537 9.420578 32.114021 39.578806 -48.928131 0.000000 0.000000 0.000000 -7.125000 0.000000 0.000000 -33.309663 82.376638 28.888389 0.000000 0.000000 0.000000 -9.676925 -6.773891 61.912077 -57.768687 -55.679028 -32.492656 -43.224996 -18.309126 -17.631474 0.000000 0.000000 0.000000 7.125000 0.000000 0.000000 -9.664400 6.670668 -8.602697
-10.087388 17.724757 -6.130855 -198.401267 103.684663 -181.246693 0.000000 0.000000 0.000000 -6.805817 -12.550870 -28.239505 1.989869 8.845010 25.311757 0.488085 7.379665 -17.915552 1.999008 -8.863983 -25.370784 0.000000 0.000000 0.000000 13.552564 13.588531 -17.502760 -0.035247 -1.211164 3.329962 0.236943 -8.805325 -1.181888 -1.558416 7.878391 -22.345301 -3.354661 2.285627 14.536143 -2.860011 2.561715 3.963640 -1.567874 1.354022 -3.954748 4.013487 3.544292 -14.992791 -2.294068 7.499619 42.202923 -0.170123 3.798134 18.785828 0.000000 0.000000 0.000000 10.323244 -34.478145 -56.268071 26.625357 -37.819559 9.268436 32.490343 40.222452 -48.627275 0.000000 0.000000 0.000000 -7.125000 0.000000 0.000000 -31.056411 82.346975 26.884358 0.000000 0.000000 0.000000 -9.984966 -7.061847 61.797166 -56.707667 -55.366087 -31.616733 -45.593312 -20.975691 -20.551605 0.000000 0.000000 0.000000 7.125000 0.000000 0.000000 -10.469659 2.203660 -10.233544
-10.092076 17.724958 -6.130032 -198.331838 103.621995 -181.162112 0.000000 0.000000 0.000000 -6.774645 -12.753983 -28.201633 1.984434 8.833594 25.276253 0.480665 7.494877 -17.933349 1.974110 -8.811905 -25.208670 0.000000 0.000000 0.000000 13.515032 13.598786 -17.692598 -0.041797 -1.318948 3.626900 0.236702 -8.769877 -1.325368 -1.547656 7.852473 -22.266893 -3.412082 2.287691 14.510044 -2.816807 2.564855 4.035108 -1.487242 1.355943 -3.869502 3.920618 3.513210 -14.976397 -2.284351 7.454444 42.095994 -0.161048 3.765767 18.705991 0.000000 0.000000 0.000000 10.261939 -34.679913 -56.451862 26.505183 -37.703212 9.194875 32.802293 40.487906 -48.873593 0.000000 0.000000 0.000000 -7.125000 0.000000 0.000000 -32.008062 82.657627 27.904378 0.000000 0.000000 0.000000 -10.766630 -6.832110 62.173871 -59.192629 -56.088816 -33.670633 -45.693521 -21.874453 -21.102238 0.000000 0.000000 0.000000 7.125000 0.000000 0.000000 -10.397961 1.471843 -10.299953
-10.092898 17.726002 -6.135315 -198.421621 103.438429 -181.226311 0.000000 0.000000 0.000000 -6.722789 -13.153270 -28.148696 1.974082 8.811762 25.208283 0.463673 7.698947 -17.922219 1.974912 -8.813624 -25.214076 0.000000 0.000000 0.000000 13.470843 13.484197 -17.937451 -0.049902 -1.442021 3.965859 0.237600 -8.756685 -1.481280 -1.585004 7.942109 -22.538427 -3.408395 2.156940 14.410381 -2.751276 2.407322 4.114862 -1.385677 1.278011 -3.734186 3.850134 3.651549 -14.737514 -2.304843 7.705085 42.002353 -0.117808 3.854067 18.592800 0.000000 0.000000 0.000000 10.529328 -34.688621 -56.249122 26.550579 -37.747283 9.222726 32.825330 40.073761 -48.482092 0.000000 0.000000 0.000000 -7.125000 0.000000 0.000000 -29.708359 82.401021 25.725586 0.000000 0.000000 0.000000 -11.488481 -6.549318 63.054504 -62.238669 -56.877524 -36.210022 -46.695576 -23.984740 -21.728993 0.000000 0.000000 0.000000 7.125000 0.000000 0.000000 -10.829008 0.289756 -10.972248
-10.087807 17.726500 -6.140820 -198.819775 102.997509 -181.698893 0.000000 0.000000 0.000000 -6.742406 -13.504296 -28.035452 1.964048 8.790766 25.142991 0.460855 7.649607 -17.844266 1.961774 -8.786012 -25.128073 0.000000 0.000000 0.000000 13.530223 12.997192 -17.857589 -0.049194 -1.431085 3.935863 0.238289 -8.748654 -1.599010 -1.553452 7.866323 -22.308830 -3.082470 1.935432 14.474988 -2.811659 2.166563 4.208245 -1.589876 1.160538 -3.656709 3.877456 3.732778 -14.669581 -2.281498 7.820431 42.002250 -0.091248 3.907346 18.580223 0.000000 0.000000 0.000000 10.643487 -34.844520 -56.157041 26.520975 -37.718516 9.204476 32.900522 40.072876 -48.228589 0.000000 0.000000 0.000000 -7.125000 0.000000 0.000000 -28.208633 82.254923 24.331130 0.000000 0.000000 0.000000 -11.776660 -6.229861 63.587474 -65.281095 -57.558616 -38.768486 -48.916993 -26.257842 -22.736851 0.000000 0.000000 0.000000 7.125000 0.000000 0.000000 -11.841375 -1.939814 -12.503432
-10.088279 17.726644 -6.139268 -199.003147 102.918292 -181.862439 0.000000 0.000000 0.000000 -6.669037 -13.654870 -27.997561 1.957585 8.777155 25.100661 0.461012 7.672686 -17.866793 1.918877 -8.694929 -24.845558 0.000000 0.000000 0.000000 13.579060 12.896349 -17.779478 -0.044726 -1.364808 3.753245 0.238584 -8.765188 -1.531129 -1.534960 7.821654 -22.173594 -3.004132 1.878171 14.442985 -2.850128 2.107315 4.260819 -1.661270 1.131959 -3.580076 3.838343 3.731550 -14.596996 -2.247198 7.826872 42.017273 -0.069246 3.909655 18.564771 0.000000 0.000000 0.000000 10.617637 -34.942109 -55.828381 26.765319 -37.954421 9.354438 32.930170 39.864323 -48.400957 0.000000 0.000000 0.000000 -7.125000 0.000000 0.000000 -29.101976 82.390871 25.188729 0.000000 0.000000 0.000000 -11.801303 -5.916505 63.848615 -68.263452 -58.135070 -41.293649 -51.003754 -27.738309 -23.397155 0.000000 0.000000 0.000000 7.125000 0.000000 0.000000 -12.833117 -3.775645 -13.998205
-10.096188 17.729644 -6.132939 -198.958018 103.069110 -181.671050 0.000000 0.000000 0.000000 -6.597935 -13.541031 -28.191833 1.958800 8.779742 25.108727 0.456627 7.711587 -17.851989 1.911622 -8.679515 -24.797910 0.000000 0.000000 0.000000 13.570428 13.072507 -17.825925 -0.039218 -1.277742 3.513354 0.236680 -8.768840 -1.327770 -1.508752 7.757420 -21.979777 -3.213488 1.927995 14.318210 -2.787326 2.149214 4.245852 -1.480263 1.151493 -3.537822 3.752923 3.808678 -14.617926 -2.185945 7.995788 42.208442 0.013053 3.970794 18.687721 0.000000 0.000000 0.000000 10.381141 -34.961546 -55.384691 26.844341 -38.030305 9.403095 32.591678 39.762902 -48.647266 0.000000 0.000000 0.000000 -7.125000 0.000000 0.000000 -30.997773 82.408242 26.865069 0.000000 0.000000 0.000000 -11.744152 -5.686217 63.945005 -70.510281 -58.513848 -43.205771 -53.286865 -29.499317 -24.070117 0.000000 0.000000 0.000000 7.125000 0.000000 0.000000 -13.899728 -5.844632 -15.692881
-10.101869 17.731103 -6.129902 -199.140780 103.040417 -181.834160 0.000000 0.000000 0.000000 -6.535216 -13.576399 -28.233675 1.959482 8.781221 25.113419 0.450239 7.739342 -17.803507 1.899421 -8.653266 -24.716655 0.000000 0.000000 0.000000 13.613482 13.043030 -17.803566 -0.036656 -1.235667 3.397506 0.236792 -8.782901 -1.270830 -1.489021 7.708997 -21.833591 -3.195033 1.944176 14.369866 -2.769094 2.169748 4.228549 -1.477518 1.161479 -3.584036 3.810134 3.824710 -14.488318 -2.252779 8.040181 42.183229 -0.024247 3.993008 18.647471 0.000000 0.000000 0.000000 10.273520 -34.934509 -55.373833 26.867128 -38.052202 9.417132 32.592380 39.799332 -48.423964 0.000000 0.000000 0.000000 -7.125000 0.000000 0.000000 -29.754434 82.253633 25.684697 0.000000 0.000000 0.000000 -11.554941 -5.567983 63.934077 -71.221836 -58.624634 -43.812731 -55.215150 -30.582439 -24.087322 0.000000 0.000000 0.000000 7.125000 0.000000 0.000000 -14.940395 -6.976516 -17.208273
-10.106458 17.728436 -6.133876 -199.157432 102.801005 -181.958608 0.000000 0.000000 0.000000 -6.606869 -13.728932 -28.171440 1.961105 8.784527 25.123545 0.449176 7.677584 -17.734216 1.903164 -8.661326 -24.741648 0.000000 0.000000 0.000000 13.597537 12.783010 -17.750188 -0.037765 -1.254275 3.448623 0.237571 -8.778662 -1.363449 -1.496817 7.728029 -21.891128 -3.100986 1.934210 14.557281 -2.764049 2.164033 4.254098 -1.531155 1.159943 -3.655189 3.852514 3.762897 -14.432163 -2.335533 7.965755 42.142276 -0.087522 3.963364 18.611672 0.000000 0.000000 0.000000 10.117412 -34.995601 -55.632634 26.864824 -38.050024 9.415682 32.634423 39.953093 -48.562844 0.000000 0.000000 0.000000 -7.125000 0.000000 0.000000 -30.459760 82.369295 26.369744 0.000000 0.000000 0.000000 -11.270883 -5.762114 63.780896 -69.180083 -58.293967 -42.073016 -57.370764 -31.802697 -24.085298 0.000000 0.000000 0.000000 7.125000 0.000000 0.000000 -16.097376 -8.318495 -18.965163
-10.113538 17.727224 -6.133486 -199.041922 102.886938 -181.782526 0.000000 0.000000 0.000000 -6.618530 -13.586333 -28.348483 1.977461 8.818880 25.230504 0.452170 7.629876 -17.725482 1.971265 -8.805888 -25.190018 0.000000 0.000000 0.000000 13.557888 12.844448 -17.678396 -0.030739 -1.129850 3.106156 0.236357 -8.812289 -1.100777 -1.526880 7.801719 -22.113554 -3.253220 1.982578 14.440804 -2.701616 2.212953 4.253938 -1.383881 1.182989 -3.600151 3.741475 3.743855 -14.396328 -2.366599 7.980229 42.095289 -0.081789 3.948385 18.569080 0.000000 0.000000 0.000000 10.000068 -35.089179 -55.625156 26.835727 -38.022064 9.397734 32.499010 40.032369 -48.816099 0.000000 0.000000 0.000000 -7.125000 0.000000 0.000000 -32.105820 82.479819 27.885160 0.000000 0.000000 0.000000 -11.063961 -6.418490 63.750359 -65.491136 -57.600799 -38.946069 -57.233558 -29.097430 -22.030502 0.000000 0.000000 0.000000 7.125000 0.000000 0.000000 -16.624526 -5.465285 -18.911046
